<svg width="132" height="30" viewBox="0 0 132 30" fill="none" xmlns="http://www.w3.org/2000/svg">
<path d="M8.00134 22.9811C6.88252 22.9811 5.81111 22.8057 4.78711 22.4549C3.77259 22.1041 2.88134 21.5968 2.11334 20.9331C1.35482 20.2694 0.809631 19.4824 0.47778 18.5722L4.16134 17.2069C4.27511 17.5293 4.51215 17.8327 4.87245 18.1171C5.23274 18.3921 5.68311 18.6196 6.22356 18.7998C6.764 18.9704 7.35659 19.0558 8.00134 19.0558C8.61763 19.0558 9.196 18.9657 9.73645 18.7855C10.2864 18.5959 10.7273 18.3352 11.0591 18.0033C11.4004 17.6715 11.5711 17.2827 11.5711 16.8371C11.5711 16.3915 11.3957 16.0217 11.0449 15.7278C10.6941 15.4338 10.2437 15.2015 9.69378 15.0309C9.14385 14.8507 8.57971 14.7133 8.00134 14.6184C6.56963 14.4098 5.28489 14.0733 4.14711 13.6087C3.01882 13.1346 2.12756 12.4851 1.47334 11.6602C0.819113 10.8258 0.492002 9.76866 0.492002 8.48866C0.492002 7.25607 0.838076 6.17992 1.53022 5.26022C2.23185 4.34051 3.15156 3.62466 4.28934 3.11266C5.43659 2.60066 6.67393 2.34466 8.00134 2.34466C9.10119 2.34466 10.1631 2.52007 11.1871 2.87088C12.2111 3.2217 13.1024 3.72896 13.8609 4.39266C14.6289 5.05636 15.1788 5.85281 15.5107 6.78199L11.8271 8.11888C11.7133 7.79651 11.4763 7.49785 11.116 7.22288C10.7557 6.94792 10.3053 6.7251 9.76489 6.55444C9.22445 6.38377 8.63659 6.29844 8.00134 6.29844C7.39452 6.28896 6.81615 6.37903 6.26622 6.56866C5.72578 6.75829 5.28015 7.01903 4.92934 7.35088C4.588 7.68273 4.41734 8.06199 4.41734 8.48866C4.41734 9.04807 4.57852 9.46999 4.90089 9.75444C5.23274 10.0389 5.66889 10.2427 6.20934 10.366C6.74978 10.4893 7.34711 10.5983 8.00134 10.6931C9.34771 10.8922 10.5898 11.2478 11.7276 11.7598C12.8653 12.2623 13.7756 12.9355 14.4582 13.7793C15.1504 14.6137 15.4964 15.633 15.4964 16.8371C15.4964 18.0697 15.1504 19.1458 14.4582 20.0656C13.7661 20.9853 12.8511 21.7011 11.7133 22.2131C10.5756 22.7251 9.33822 22.9811 8.00134 22.9811ZM25.7776 22.6113H21.9091L17.1589 8.38911H20.9989L23.8576 16.9082L26.6878 8.38911H30.5278L33.358 16.9082L36.2024 8.38911H40.0567L35.2922 22.6113H31.438L28.6078 14.078L25.7776 22.6113ZM42.0956 8.38911H46.0209V22.6113H42.0956V8.38911ZM44.0867 6.75355C43.5178 6.75355 43.039 6.56392 42.6502 6.18466C42.2615 5.8054 42.0671 5.33607 42.0671 4.77666C42.0671 4.21725 42.2615 3.74792 42.6502 3.36866C43.039 2.9894 43.513 2.79977 44.0724 2.79977C44.6319 2.79977 45.1012 2.9894 45.4804 3.36866C45.8692 3.74792 46.0636 4.21725 46.0636 4.77666C46.0636 5.33607 45.8739 5.8054 45.4947 6.18466C45.1249 6.56392 44.6556 6.75355 44.0867 6.75355ZM53.7809 5.62999V8.38911H57.5498V12.3144H53.7809V22.6113H49.8556V12.3144H48.4333V8.38911H49.8556V5.62999C49.8556 4.76718 50.0689 3.98496 50.4956 3.28333C50.9222 2.57222 51.4911 2.00333 52.2022 1.57666C52.9228 1.14999 53.7145 0.936661 54.5773 0.936661C55.2126 0.936661 55.8384 1.0694 56.4547 1.33488C57.071 1.59088 57.6209 1.99385 58.1044 2.54377L55.2884 5.3171C55.2221 5.1654 55.1225 5.05162 54.9898 4.97577C54.857 4.89992 54.7196 4.86199 54.5773 4.86199C54.3593 4.86199 54.1696 4.93785 54.0084 5.08955C53.8567 5.23177 53.7809 5.41192 53.7809 5.62999ZM68.1102 12.3144H65.5502V22.6113H61.6249V12.3144H59.6622V8.38911H61.6249V3.92333H65.5502V8.38911H68.1102V12.3144ZM70.6789 22.6113V2.70022H74.6042V18.686H82.6256V22.6113H70.6789ZM90.9367 22.9811C89.6282 22.9811 88.4336 22.6445 87.3527 21.9713C86.2813 21.2981 85.4232 20.3974 84.7784 19.2691C84.1432 18.1313 83.8256 16.875 83.8256 15.5002C83.8256 14.4573 84.0104 13.4854 84.3802 12.5847C84.75 11.6744 85.2573 10.878 85.902 10.1953C86.5562 9.50318 87.3147 8.96273 88.1776 8.57399C89.0404 8.18525 89.9601 7.99088 90.9367 7.99088C92.2451 7.99088 93.435 8.32748 94.5064 9.00066C95.5873 9.67385 96.4454 10.5793 97.0807 11.7171C97.7254 12.8549 98.0478 14.1159 98.0478 15.5002C98.0478 16.5337 97.8629 17.5008 97.4931 18.4016C97.1233 19.3023 96.6113 20.0987 95.9571 20.7909C95.3124 21.4736 94.5586 22.0093 93.6958 22.398C92.8424 22.7867 91.9227 22.9811 90.9367 22.9811ZM90.9367 19.0558C91.5435 19.0558 92.0887 18.8946 92.5722 18.5722C93.0558 18.2404 93.435 17.8042 93.71 17.2638C93.985 16.7233 94.1224 16.1355 94.1224 15.5002C94.1224 14.846 93.9755 14.2487 93.6816 13.7082C93.3971 13.1583 93.0131 12.7221 92.5296 12.3998C92.046 12.0774 91.515 11.9162 90.9367 11.9162C90.3393 11.9162 89.7989 12.0821 89.3153 12.414C88.8318 12.7458 88.4478 13.182 88.1633 13.7224C87.8884 14.2629 87.7509 14.8555 87.7509 15.5002C87.7509 16.1734 87.8931 16.7802 88.1776 17.3207C88.4715 17.8516 88.8602 18.2736 89.3438 18.5864C89.8273 18.8993 90.3583 19.0558 90.9367 19.0558ZM106.576 22.9811C105.267 22.9811 104.072 22.6445 102.992 21.9713C101.92 21.2981 101.062 20.3974 100.417 19.2691C99.7821 18.1313 99.4644 16.875 99.4644 15.5002C99.4644 14.4573 99.6493 13.4854 100.019 12.5847C100.389 11.6744 100.896 10.878 101.541 10.1953C102.195 9.50318 102.954 8.96273 103.816 8.57399C104.679 8.18525 105.599 7.99088 106.576 7.99088C107.884 7.99088 109.074 8.32748 110.145 9.00066C111.226 9.67385 112.084 10.5793 112.72 11.7171C113.364 12.8549 113.687 14.1159 113.687 15.5002C113.687 16.5337 113.502 17.5008 113.132 18.4016C112.762 19.3023 112.25 20.0987 111.596 20.7909C110.951 21.4736 110.197 22.0093 109.335 22.398C108.481 22.7867 107.562 22.9811 106.576 22.9811ZM106.576 19.0558C107.182 19.0558 107.728 18.8946 108.211 18.5722C108.695 18.2404 109.074 17.8042 109.349 17.2638C109.624 16.7233 109.761 16.1355 109.761 15.5002C109.761 14.846 109.614 14.2487 109.32 13.7082C109.036 13.1583 108.652 12.7221 108.168 12.3998C107.685 12.0774 107.154 11.9162 106.576 11.9162C105.978 11.9162 105.438 12.0821 104.954 12.414C104.471 12.7458 104.087 13.182 103.802 13.7224C103.527 14.2629 103.39 14.8555 103.39 15.5002C103.39 16.1734 103.532 16.7802 103.816 17.3207C104.11 17.8516 104.499 18.2736 104.983 18.5864C105.466 18.8993 105.997 19.0558 106.576 19.0558ZM119.771 29.7224H115.846V8.38911H119.771V9.92511C120.226 9.3657 120.766 8.91059 121.392 8.55977C122.018 8.19948 122.748 8.01933 123.582 8.01933C124.616 8.01933 125.583 8.2137 126.484 8.60244C127.394 8.99118 128.19 9.53162 128.873 10.2238C129.556 10.9064 130.091 11.6981 130.48 12.5989C130.869 13.4996 131.063 14.4667 131.063 15.5002C131.063 16.5337 130.869 17.5055 130.48 18.4158C130.091 19.326 129.556 20.1272 128.873 20.8193C128.19 21.502 127.394 22.0377 126.484 22.4264C125.583 22.8152 124.616 23.0096 123.582 23.0096C122.748 23.0096 122.018 22.8294 121.392 22.4691C120.766 22.1088 120.226 21.6537 119.771 21.1038V29.7224ZM123.526 11.7882C122.881 11.7882 122.298 11.9589 121.776 12.3002C121.264 12.6321 120.857 13.0777 120.553 13.6371C120.259 14.1965 120.112 14.8176 120.112 15.5002C120.112 16.1829 120.259 16.8087 120.553 17.3775C120.857 17.937 121.264 18.3826 121.776 18.7144C122.298 19.0463 122.881 19.2122 123.526 19.2122C124.17 19.2122 124.758 19.0463 125.289 18.7144C125.83 18.3826 126.256 17.937 126.569 17.3775C126.891 16.8181 127.053 16.1924 127.053 15.5002C127.053 14.827 126.896 14.2107 126.583 13.6513C126.27 13.0824 125.844 12.6321 125.303 12.3002C124.772 11.9589 124.18 11.7882 123.526 11.7882Z" fill="url(#paint0_linear_268_395)"/>
<defs>
<linearGradient id="paint0_linear_268_395" x1="-0.944443" y1="23.408" x2="108.41" y2="18.1171" gradientUnits="userSpaceOnUse">
<stop stop-color="#205BF1"/>
<stop offset="0.93" stop-color="#F7E9F6"/>
</linearGradient>
</defs>
</svg>
